<?xml version="1.0" encoding="UTF-8" standalone="no"?>
<!-- Created with Inkscape (http://www.inkscape.org/) -->

<svg
   width="51.999393mm"
   height="37.950611mm"
   viewBox="0 0 51.999393 37.950611"
   version="1.1"
   id="svg5"
   xmlns="http://www.w3.org/2000/svg"
   xmlns:svg="http://www.w3.org/2000/svg">
  <defs
     id="defs2" />
  <g
     id="layer1"
     transform="translate(-91.808724,-110.91736)">
    <g
       id="g29065"
       transform="translate(50.013841,84.955017)">
      <path
         id="path28746"
         style="fill:#c07458;stroke-width:0.468699"
         d="m 216.90625,98.195312 c -0.40955,0.03887 -1.05612,0.397874 -1.87305,1.123047 -0.9068,0.804961 -2.65034,2.104861 -3.875,2.890621 -13.37168,8.57968 -15.53906,10.30309 -15.53906,12.35352 0,0.48325 -0.75704,1.7089 -1.68359,2.72461 -0.92655,1.01567 -1.82332,2.24513 -1.99219,2.73242 -0.36215,1.04512 -1.8104,1.45391 -4.45117,1.25586 l -1.91211,-0.14258 -0.29102,-8.07422 c -0.28155,-7.79221 -0.61803,-10.30961 -1.4375,-10.77343 -0.6929,-0.39224 -1.84043,0.27059 -2.19922,1.27148 -0.34561,0.96416 -0.99123,7.20841 -1.51562,14.6582 -0.1475,2.09556 -0.49664,4.06313 -0.77734,4.37305 -0.2807,0.30958 -1.14049,0.5625 -1.91016,0.5625 -3.35705,0 -8.61521,2.88732 -10.875,5.97266 -0.75581,1.03192 -2.13283,2.59098 -3.06055,3.46484 -0.92772,0.87383 -1.69122,1.98576 -1.69726,2.46875 -0.006,0.48302 -0.442,1.3813 -0.96875,1.99805 -0.67424,0.78947 -0.96119,1.83247 -0.96875,3.52343 -0.0145,3.20202 1.82128,11.51333 2.98047,13.49415 0.50974,0.87106 0.92578,2.17023 0.92578,2.88671 0,1.38562 -2.15098,4.92599 -4.47266,7.36133 -1.6328,1.71277 -1.76409,2.57875 -0.49023,3.20313 0.84841,0.41586 0.86489,0.61297 0.24414,2.80468 -1.69451,5.98285 0.0168,9.78711 4.40234,9.78711 2.8911,0 4.98036,-1.36478 7.54102,-4.92578 1.78303,-2.47959 2.08203,-3.23117 2.08203,-5.24804 0,-2.16488 0.18329,-2.5456 2.2832,-4.72461 1.25611,-1.30341 2.43523,-2.42655 2.61914,-2.4961 0.30925,-0.11697 2.93359,3.18871 2.93359,3.69532 0,0.12389 1.12022,1.75332 2.49024,3.62109 2.32032,3.16335 5.91872,6.00675 7.63281,6.0332 0.31488,0.005 1.1964,0.29209 1.95899,0.63867 4.18264,1.90073 6.14482,2.44002 9.92773,2.72461 6.15868,0.46334 12.03943,1.76833 14.39062,3.19336 1.12395,0.68123 2.92622,1.47536 4.00391,1.76563 l 1.95899,0.52734 0.31836,3.76563 c 0.17545,2.07076 0.54647,4.67308 0.82226,5.7832 1.66972,6.72144 3.02344,17.63051 3.02344,24.36328 0,5.33771 -0.63738,7.60375 -3.00586,10.69336 -1.34445,1.75381 -1.18229,2.62109 0.49023,2.62109 0.77178,0 1.96356,0.40506 2.64844,0.89844 1.40538,1.01242 3.42854,1.17643 4.13867,0.33594 0.50254,-0.59478 1.23747,-3.06885 2.07422,-6.97461 0.63458,-2.96254 0.61893,-20.60477 -0.0215,-23.63867 -1.50933,-7.1503 -2.01613,-10.30057 -2.25586,-14.01758 -0.14714,-2.28197 -0.12187,-4.14844 0.0566,-4.14844 0.17851,0 1.57236,1.09708 3.09765,2.43946 1.5253,1.34233 3.22286,2.63651 3.77344,2.875 2.19249,0.95009 6.05415,1.95697 8.9336,2.32812 3.74784,0.48302 7.00196,1.28882 12.39257,3.07227 l 4.16407,1.37695 15.57421,0.008 c 12.21792,0.007 15.85898,-0.12223 16.89649,-0.60351 0.72738,-0.3374 2.53411,-0.87966 4.01562,-1.20508 1.48151,-0.32527 4.16502,-1.36186 5.96289,-2.30274 2.33429,-1.22158 3.84635,-1.71093 5.28907,-1.71093 2.33084,0 4.71941,-1.00157 6.0332,-2.53125 0.50297,-0.58572 1.08676,-0.96785 1.29883,-0.84766 1.75506,0.99341 1.39498,21.49784 -0.50391,28.69531 -0.51681,1.95889 -0.93945,4.24377 -0.93945,5.07617 0,0.83245 -0.41179,2.45935 -0.91602,3.61524 -0.50422,1.15589 -1.30404,3.31275 -1.77734,4.79297 -0.4733,1.48021 -1.71314,4.33511 -2.75586,6.3457 -1.999,3.85455 -2.2869,4.87172 -1.2832,4.5293 4.13983,-1.4123 3.96553,-1.40626 6.76172,-0.17383 1.46611,0.64619 2.93582,1.177 3.26562,1.17969 1.02852,0.009 1.96436,-2.32291 2.33789,-5.82422 0.1974,-1.85027 0.69008,-3.95718 1.09571,-4.68164 0.64755,-1.15665 0.66762,-3.07118 0.1621,-15.69922 -0.36522,-9.12359 -0.81923,-15.20224 -1.24218,-16.625 -0.3667,-1.23349 -1.02536,-4.39998 -1.46485,-7.03711 -0.64982,-3.89926 -0.68359,-4.96507 -0.18164,-5.70117 0.5256,-0.77084 0.46335,-1.05803 -0.41211,-1.9336 -1.48666,-1.48686 -1.80354,-2.83459 -0.94922,-4.03515 1.68744,-2.37132 2.29522,-13.86147 0.97657,-18.45703 -0.6234,-2.17259 -0.72182,-3.89559 -0.47071,-8.13868 0.35918,-6.06863 0.82682,-8.02809 2.30274,-9.64062 0.88336,-0.9651 1.56826,-1.15636 5.01172,-1.4043 4.81993,-0.34681 5.23856,-0.0933 5.82031,3.52344 1.19457,7.4267 1.4324,9.26557 1.79297,13.80078 0.21576,2.7137 0.72857,6.24607 1.13867,7.84961 0.95768,3.74502 1.45108,11.91756 0.95508,15.82813 -0.29126,2.29636 -0.23186,3.16413 0.24609,3.52734 0.70916,0.53904 0.63879,0.67896 1.6836,-3.3457 0.37189,-1.43256 0.89538,-2.60951 1.1621,-2.61329 0.26671,-0.005 1.25763,2.17648 2.20313,4.84766 2.28966,6.46862 4.66773,9.9611 5.96875,8.76953 0.38553,-0.35304 0.37394,-1.52752 -0.041,-4.2207 -1.02042,-6.62279 -1.53273,-8.79496 -3.01562,-12.80273 -1.35477,-3.6615 -1.88992,-6.05424 -2.88867,-12.90626 -0.21576,-1.48017 -0.96869,-4.24103 -1.67383,-6.13476 -0.70515,-1.89377 -1.2832,-4.22497 -1.2832,-5.18164 0,-1.13953 -0.47932,-2.43091 -1.38868,-3.74414 -1.00011,-1.44431 -1.46986,-2.81706 -1.68359,-4.91016 -0.34647,-3.39303 -3.28036,-11.74313 -4.5918,-13.07031 -1.49034,-1.50822 -3.14397,-2.03125 -7.42578,-2.3457 -2.23853,-0.1643 -5.31409,-0.59615 -6.83593,-0.95899 -1.68172,-0.40116 -5.04066,-0.6582 -8.56446,-0.6582 -4.84614,0 -6.13739,0.15031 -7.85742,0.91797 -1.13179,0.50513 -4.04055,1.20023 -6.46484,1.54492 -2.42429,0.34465 -6.37768,1.24234 -8.78516,1.99609 l -4.37695,1.3711 h -20.20313 c -12.94109,0 -20.31392,0.16197 -20.50781,0.44922 -0.17629,0.26143 -2.92126,0.44726 -6.57422,0.44726 -5.36506,0 -6.44033,-0.11951 -7.43945,-0.83203 -0.6424,-0.45812 -2.7121,-1.58901 -4.59766,-2.51367 -1.88556,-0.92463 -4.46271,-2.35941 -5.72851,-3.1875 -4.72959,-3.09426 -8.93852,-4.68775 -13.16407,-4.98633 -2.15231,-0.15201 -4.02816,-0.44718 -4.16797,-0.6543 -0.243,-0.36011 1.19641,-1.05381 4.50782,-2.17187 2.05929,-0.69532 3.98505,-2.66718 6.79492,-6.95899 2.12285,-3.24242 2.89979,-5.02289 4.14844,-9.52343 0.22121,-0.79737 0.87847,-2.18962 1.46093,-3.09375 0.95866,-1.488098 0.93649,-2.310881 0.25391,-2.246098 z m 137.5918,36.792968 c -0.67254,0.11264 -1.40128,0.21064 -2.11719,0.26367 -1.74623,0.12915 -3.22986,0.46402 -3.33398,0.75391 -0.16081,0.44738 1.95652,1.15836 5.45117,1.9043 z m -20.11328,5.82227 c 0.1888,-0.0408 0.41121,0.0449 0.59179,0.3125 0.18369,0.2722 0.11752,0.6917 -0.14648,0.93359 -0.3135,0.28702 -0.57913,0.20168 -0.76758,-0.24805 -0.21414,-0.51115 0.008,-0.93007 0.32227,-0.99804 z m 2.27148,8.81054 c 0.22338,-0.0406 0.55006,0.17562 0.97852,0.64844 0.61266,0.67612 1.62831,5.87576 1.53711,7.86719 -0.0283,0.61678 -0.18062,2.38193 -0.33985,3.92383 -0.15925,1.54186 -0.49804,2.80273 -0.75195,2.80273 -0.70923,0 -0.85417,-0.74756 -1.12891,-5.83008 -0.14003,-2.59037 -0.39247,-5.76928 -0.56055,-7.06445 -0.19436,-1.4978 -0.10667,-2.28002 0.26563,-2.34766 z m 4.81836,17.9336 c 0.54888,0 1.055,1.52263 1.06445,3.19726 0.004,0.64808 0.69364,3.17175 1.53321,5.60743 1.88181,5.45933 2.69095,8.59516 3.08007,11.9414 0.29967,2.57703 -0.19602,3.38637 -1.09961,1.79492 -0.59885,-1.05471 -2.99854,-8.60378 -3.88671,-12.22461 -0.8881,-3.62052 -1.33666,-10.3164 -0.69141,-10.3164 z m -104.97656,16.59179 c 1.62991,-0.0108 3.97811,0.27157 4.91406,0.73047 2.09303,1.02626 6.01871,1.81525 13.27539,2.66602 3.4735,0.40721 6.57703,0.93654 6.89844,1.17578 0.32141,0.23932 4.40504,0.58219 9.07422,0.76172 4.66917,0.17956 8.8142,0.51642 9.21093,0.75 0.39673,0.23357 5.82763,0.52522 12.06836,0.64844 10.26158,0.20281 12.59467,0.42686 11.82813,1.1289 -0.13822,0.12658 -2.10356,0.77388 -4.36719,1.43946 -4.08051,1.19988 -4.25025,1.21203 -20.03125,1.32617 l -15.91797,0.11523 -4.36719,-1.53515 c -4.68352,-1.64569 -7.75903,-2.39834 -12.03906,-2.94532 -4.18049,-0.53423 -8.37038,-2.10911 -10.4082,-3.91406 -1.01012,-0.89465 -1.83594,-1.78784 -1.83594,-1.98437 0,-0.24402 0.71932,-0.35678 1.69727,-0.36329 z m 79.91601,2.50391 c 0.11168,-0.006 0.17578,0.0245 0.17578,0.0977 0,0.24442 -0.38603,0.86089 -0.85742,1.37109 -1.00359,1.08612 -3.79856,1.87396 -3.47265,0.97852 0.23215,-0.63784 3.37255,-2.40694 4.15429,-2.44727 z"
         transform="scale(0.26458333)" />
    </g>
    <path
       style="fill:#463d36;stroke:none;stroke-width:0.12401;stroke-opacity:1"
       d="m 134.04403,148.54792 c -0.68625,-0.30388 -0.72186,-0.30741 -1.27241,-0.12609 -0.69482,0.22883 -0.85047,0.0531 -0.43094,-0.48648 0.14919,-0.19189 0.27148,-0.42076 0.27175,-0.50859 2.6e-4,-0.0878 0.11792,-0.33611 0.26145,-0.55172 0.14353,-0.21561 0.38341,-0.80306 0.53306,-1.30545 0.14965,-0.50239 0.35271,-1.05765 0.45125,-1.23391 0.0985,-0.17626 0.17915,-0.49008 0.17915,-0.69738 0,-0.2073 0.11234,-0.83746 0.24965,-1.40036 0.39338,-1.61264 0.58546,-5.9073 0.31869,-7.1257 -0.13776,-0.62922 -0.32558,-0.71959 -0.62517,-0.30083 -0.28241,0.39475 -0.93801,0.6472 -1.68071,0.6472 -0.3188,0 -0.61328,0.0499 -0.6544,0.1108 -0.13166,0.19511 -1.65556,0.81713 -2.76692,1.12939 -1.05268,0.29578 -1.16406,0.30256 -4.92408,0.29979 -2.11587,-0.002 -4.05113,-0.0518 -4.30057,-0.11157 -0.24945,-0.0598 -1.03838,-0.29791 -1.75319,-0.52912 -0.71481,-0.23121 -1.73526,-0.46977 -2.26767,-0.53012 -1.54885,-0.17557 -2.64385,-0.60667 -3.49093,-1.37438 -0.39827,-0.36095 -0.76618,-0.65628 -0.81756,-0.65628 -0.27057,0 0.13538,3.78737 0.46429,4.33174 0.24765,0.40988 0.28146,5.63483 0.0438,6.76464 -0.29342,1.39471 -0.36347,1.6457 -0.50516,1.80984 -0.19616,0.22723 -0.80591,0.17642 -1.06819,-0.089 -0.13098,-0.13255 -0.3991,-0.23735 -0.60726,-0.23735 -0.48266,0 -0.58448,-0.26177 -0.2638,-0.67819 0.68805,-0.89344 0.80627,-1.31162 0.80627,-2.85203 0,-1.90217 -0.3403,-4.65413 -0.7962,-6.43873 -0.075,-0.29372 -0.17441,-0.98233 -0.22083,-1.53022 l -0.0844,-0.99618 -0.53558,-0.14432 c -0.29457,-0.0794 -0.74437,-0.29017 -0.99956,-0.46843 -0.54074,-0.37774 -2.05569,-0.71707 -3.72046,-0.83333 -1.00686,-0.0703 -1.33796,-0.15738 -2.84322,-0.74763 -1.417889,-0.55598 -1.83501,-0.85226 -2.397256,-1.70277 -0.07127,-0.10781 -0.374304,-0.56705 -0.67341,-1.02053 -0.667868,-1.01256 -0.905542,-1.22129 -1.032854,-0.90707 -0.04926,0.12157 -0.312353,0.42126 -0.584648,0.66596 -0.456451,0.41019 -0.495083,0.49655 -0.495083,1.10666 0,0.58015 -0.06996,0.76079 -0.56737,1.46501 -0.66121,0.93612 -1.241468,1.31516 -2.01334,1.31516 -0.96308,0 -1.435543,-0.76528 -1.252532,-2.0288 0.04714,-0.32542 0.151925,-0.72479 0.232868,-0.88749 0.126854,-0.25499 0.108302,-0.32076 -0.13439,-0.47644 -0.260139,-0.16688 -0.267448,-0.20561 -0.09608,-0.50912 0.102015,-0.18068 0.276423,-0.39763 0.387574,-0.48211 0.352707,-0.26809 0.981336,-1.38762 0.97838,-1.7424 -0.0016,-0.18787 -0.122073,-0.58191 -0.267796,-0.87564 -0.328637,-0.66242 -0.763444,-2.58753 -0.763934,-3.38232 -2.46e-4,-0.39394 0.08617,-0.71305 0.257089,-0.94942 0.1416,-0.19582 0.257839,-0.44752 0.258309,-0.55933 9.32e-4,-0.22245 0.74824,-1.0941 1.728886,-2.01655 0.685847,-0.64515 1.735667,-1.1595 2.370303,-1.16131 0.222899,-6e-4 0.465828,-0.068 0.539841,-0.14966 0.07401,-0.0817 0.167122,-0.57568 0.206911,-1.09778 0.03979,-0.52209 0.117573,-1.56584 0.172855,-2.31943 0.07383,-1.00647 0.163009,-1.45748 0.335949,-1.6991 0.180412,-0.25206 0.275483,-0.2985 0.406789,-0.19869 0.291246,0.22137 0.366587,0.70254 0.446659,2.85258 l 0.07735,2.07687 h 0.77627 c 0.73299,0 0.78717,-0.0199 0.97186,-0.35657 0.10757,-0.19612 0.35594,-0.511 0.55193,-0.69973 0.196,-0.18874 0.35635,-0.45916 0.35635,-0.60095 0,-0.45202 0.7885,-1.21865 2.10587,-2.04747 2.61949,-1.64805 2.8867,-1.82916 3.1636,-2.14427 0.21483,-0.24448 0.31999,-0.28926 0.43568,-0.18552 0.1166,0.10456 0.0885,0.21629 -0.11928,0.47471 -0.23743,0.29524 -0.5348,1.09678 -0.76304,2.05669 -0.0603,0.25376 -0.3565,0.74861 -1.03289,1.72583 -0.0893,0.12896 -0.21484,0.34458 -0.27908,0.47916 -0.20521,0.42994 -0.99764,0.96459 -1.75156,1.18177 -0.40232,0.1159 -0.7102,0.2696 -0.68418,0.34155 0.026,0.072 0.49022,0.16801 1.03156,0.21345 1.09159,0.0916 2.20202,0.50352 3.44932,1.27944 0.40078,0.24932 1.13687,0.65421 1.63576,0.89977 0.49889,0.24555 1.03091,0.54768 1.18227,0.67141 0.25163,0.20569 0.42915,0.219 2.07329,0.1555 0.98896,-0.0382 4.27634,-0.10793 7.3053,-0.15496 l 5.5072,-0.0855 1.23102,-0.37561 c 0.67706,-0.20659 1.64279,-0.43166 2.14606,-0.50017 0.50327,-0.0685 1.17385,-0.23209 1.49018,-0.36352 0.46642,-0.19379 0.84462,-0.23848 2.00054,-0.2364 0.78397,10e-4 1.6878,0.056 2.00851,0.1214 0.32071,0.0654 1.16623,0.18917 1.87893,0.27515 0.71269,0.086 1.44851,0.2131 1.63514,0.28251 0.40957,0.1523 0.86897,0.66289 0.97439,1.08295 0.0424,0.16889 0.21753,0.69944 0.38922,1.17899 0.17169,0.47956 0.34656,1.20052 0.3886,1.60216 0.0515,0.49237 0.18082,0.87255 0.3969,1.16713 0.20128,0.2744 0.36044,0.7158 0.42792,1.18678 0.0591,0.41243 0.23211,1.07031 0.38448,1.46195 0.24522,0.63032 0.36107,1.19389 0.60989,2.96695 0.0366,0.26109 0.29206,1.15319 0.56761,1.98245 0.27554,0.82927 0.56158,1.95077 0.63565,2.49224 0.0741,0.54147 0.16815,1.14813 0.20906,1.34813 0.10936,0.53469 -0.22127,0.75468 -0.55326,0.36813 -0.41081,-0.47831 -0.78867,-1.2701 -1.15627,-2.42293 -0.19253,-0.60377 -0.40061,-1.09777 -0.46241,-1.09777 -0.14201,0 -0.3604,0.51415 -0.47493,1.11811 -0.0485,0.25597 -0.14856,0.4838 -0.22228,0.5063 -0.0887,0.0271 -0.13849,-0.69161 -0.14726,-2.12687 -0.0101,-1.656 -0.0665,-2.34991 -0.23896,-2.9392 -0.12415,-0.42427 -0.27386,-1.38557 -0.3327,-2.1362 -0.0588,-0.75064 -0.1692,-1.73863 -0.24524,-2.19554 -0.076,-0.45691 -0.17111,-1.09777 -0.21124,-1.42414 -0.11179,-0.90895 -0.25633,-0.99699 -1.51374,-0.922 -0.58331,0.0348 -1.14294,0.12297 -1.24361,0.19594 -0.43174,0.31295 -0.64643,1.08415 -0.7319,2.62913 -0.0671,1.21212 -0.0409,1.71013 0.12335,2.34703 0.33347,1.29318 0.19249,3.90818 -0.25752,4.77671 -0.21157,0.40833 -0.0855,0.92567 0.2863,1.17464 0.16628,0.11136 0.17267,0.18581 0.039,0.45448 -0.1237,0.24864 -0.12621,0.46224 -0.0111,0.94459 0.0818,0.34282 0.18494,0.94374 0.22918,1.33537 0.0442,0.39164 0.15586,0.92569 0.24806,1.18678 0.10555,0.29891 0.22492,1.86136 0.32234,4.21911 0.13676,3.30984 0.13166,3.79493 -0.0439,4.17985 -0.10927,0.23951 -0.23908,0.82424 -0.28847,1.29942 -0.0898,0.86364 -0.22849,1.2618 -0.49677,1.42586 -0.19465,0.11903 -0.18232,0.12194 -0.97816,-0.23047 z m 0.9671,-1.13251 c 0.0512,-0.47323 0.17994,-1.01568 0.28617,-1.20544 0.16323,-0.29157 0.17859,-0.7718 0.0992,-3.09975 -0.0517,-1.51511 -0.13775,-3.06881 -0.19124,-3.45267 -0.0949,-0.68072 -0.0977,-0.67138 -0.11425,0.37829 -0.009,0.59193 -0.10764,1.35579 -0.21843,1.69747 -0.11079,0.34168 -0.24899,1.00958 -0.30711,1.48424 -0.0581,0.47465 -0.1954,1.04592 -0.30507,1.26948 -0.10967,0.22356 -0.2307,0.53999 -0.26896,0.70317 -0.17777,0.75823 -0.4845,1.59647 -0.64716,1.7686 -0.0985,0.10427 -0.21566,0.33059 -0.26027,0.50293 -0.0729,0.28184 -0.0379,0.32077 0.34883,0.38721 0.23646,0.0406 0.5421,0.1516 0.6792,0.2466 0.13711,0.095 0.37457,0.17443 0.52769,0.17651 0.25122,0.003 0.28749,-0.0802 0.37143,-0.85664 z m -23.8413,-1.66149 c 0.198,-0.51986 0.24605,-1.10509 0.29011,-3.53318 0.0348,-1.91591 0.002,-3.13226 -0.0958,-3.56034 -0.0818,-0.35762 -0.20206,-0.99735 -0.26733,-1.42162 -0.0653,-0.42427 -0.17524,-1.01173 -0.24436,-1.30546 -0.22447,-0.95387 -0.25023,-2.49271 -0.0449,-2.68079 0.28705,-0.2629 2.41497,-0.22326 3.09008,0.0576 0.63755,0.2652 1.97838,0.53631 3.81249,0.77088 0.74833,0.0957 1.65216,0.22802 2.00851,0.29404 0.35635,0.066 1.26417,0.12321 2.01738,0.1271 0.75608,0.004 1.65571,0.0813 2.00851,0.17286 0.44542,0.11556 1.76051,0.18591 4.34052,0.2322 3.56146,0.0639 3.70969,0.0576 3.91856,-0.16579 0.11939,-0.1277 0.29054,-0.23271 0.38032,-0.23335 0.0898,-5.9e-4 0.41928,-0.18755 0.7322,-0.41537 0.31293,-0.22782 0.68399,-0.41422 0.82459,-0.41422 0.27481,0 0.27338,-0.10181 -0.0159,-1.12733 -0.14377,-0.50968 -0.0475,-0.70836 0.34429,-0.7108 0.16801,-0.001 0.24261,-0.14528 0.30763,-0.59477 0.16883,-1.16719 0.117,-3.07594 -0.10175,-3.74648 -0.16806,-0.51517 -0.19276,-0.91863 -0.12304,-2.00939 0.10676,-1.67024 0.33975,-2.4583 0.86262,-2.91769 0.34732,-0.30516 0.51124,-0.35295 1.39002,-0.40529 l 0.99626,-0.0593 0.10183,-0.94188 c 0.13711,-1.26828 0.0531,-1.34321 -1.73729,-1.54937 -0.7397,-0.0852 -1.57815,-0.21242 -1.86323,-0.28278 -0.84225,-0.20786 -3.57425,-0.16967 -4.07015,0.0569 -0.53582,0.24481 -1.75638,0.51193 -2.36397,0.51736 -0.26036,0.002 -1.05973,0.19114 -1.77636,0.4196 l -1.30297,0.41537 h -5.2275 c -3.56354,0 -5.27196,0.0407 -5.36716,0.1279 -0.0909,0.0833 -0.78255,0.11433 -1.98138,0.089 -1.65418,-0.0349 -1.86362,-0.0631 -2.05675,-0.27625 -0.11826,-0.13054 -0.41911,-0.33027 -0.66855,-0.44383 -0.93366,-0.42505 -1.88696,-0.94225 -2.14333,-1.16283 -0.59021,-0.50781 -2.05211,-1.03483 -3.24174,-1.16865 -2.27743,-0.25618 -2.64896,-0.33212 -2.64896,-0.54145 0,-0.27437 0.38192,-0.54027 0.776,-0.54027 0.20281,0 0.64081,-0.10681 0.97334,-0.23736 0.33253,-0.13054 0.71918,-0.23735 0.85921,-0.23735 0.34644,0 0.75979,-0.43472 1.50534,-1.58315 0.60738,-0.93558 1.19514,-2.37626 1.03084,-2.52673 -0.044,-0.0403 -0.35951,0.11965 -0.70107,0.35551 -0.34156,0.23585 -0.85427,0.57531 -1.13934,0.75435 -1.39442,0.87576 -2.26767,1.59205 -2.26767,1.86008 0,0.15075 -0.14358,0.45556 -0.31906,0.67735 -0.17547,0.22178 -0.52462,0.68363 -0.77587,1.02631 l -0.45683,0.62306 H 99.8388 c -1.32746,0 -1.302169,0.0481 -1.32977,-2.53039 -0.02517,-2.35114 -0.0018,-2.43761 -0.330965,1.22493 -0.05846,0.65046 -0.183165,1.24227 -0.294772,1.39887 -0.19729,0.27683 -0.314194,0.31753 -1.23771,0.43094 -0.761401,0.0935 -1.252804,0.35485 -1.863155,0.99092 -0.296383,0.30888 -0.74018,0.7668 -0.986215,1.01761 -0.246035,0.25082 -0.447337,0.5507 -0.447337,0.6664 0,0.1157 -0.116623,0.34615 -0.259162,0.51212 -0.192447,0.22406 -0.258849,0.48024 -0.257943,0.99509 0.0016,0.88188 0.420046,2.7874 0.764788,3.48228 0.349181,0.70383 0.337709,1.04129 -0.05331,1.56831 -0.178174,0.24014 -0.323953,0.48459 -0.323953,0.5432 0,0.0586 -0.116623,0.20325 -0.259163,0.32139 -0.142539,0.11814 -0.259162,0.28663 -0.259162,0.37443 0,0.21624 0.576358,0.20356 0.776303,-0.0171 0.233528,-0.25771 0.427589,-0.0848 0.342436,0.30518 -0.08542,0.39117 0.07625,0.54116 0.307838,0.2856 0.234663,-0.25896 0.455806,-0.21638 0.623144,0.11998 0.185727,0.37333 0.490097,0.38321 0.589864,0.0192 0.04183,-0.15265 0.278768,-0.45906 0.526526,-0.68093 0.247758,-0.22186 0.54539,-0.63102 0.661404,-0.90924 0.295995,-0.70984 0.585795,-0.66916 1.167643,0.16388 0.257279,0.36835 0.521101,0.78224 0.586268,0.91975 0.244976,0.51693 1.402676,1.88272 1.758593,2.07469 1.08943,0.58762 2.61248,1.06079 3.80396,1.1818 1.90024,0.19299 3.09534,0.47527 3.90439,0.92221 0.4013,0.22169 0.89695,0.40389 1.10144,0.40489 0.6743,0.003 0.75358,0.13318 0.84723,1.38802 0.0477,0.63895 0.14659,1.42876 0.2198,1.75512 0.48435,2.15916 0.79784,4.68769 0.79619,6.42186 -0.001,1.21778 -0.0318,1.38038 -0.40011,2.12436 l -0.39885,0.80565 0.36646,0.2746 c 0.20155,0.15103 0.43049,0.27652 0.50875,0.27887 0.0783,0.002 0.24909,-0.27611 0.37961,-0.61879 z M 96.284755,122.94381 c -0.09061,-0.21625 0.238956,-0.53977 0.549859,-0.53977 0.125248,0 0.514686,-0.30178 0.865418,-0.67062 0.350731,-0.36884 0.82919,-0.74415 1.063242,-0.83402 0.234052,-0.0899 0.491236,-0.29545 0.57152,-0.45682 0.08028,-0.16138 0.253234,-0.29342 0.384334,-0.29342 0.588612,0 -0.03086,1.20695 -0.763338,1.48725 -0.38162,0.14603 -0.440064,0.21702 -0.374783,0.45524 0.06325,0.23079 -0.01091,0.33664 -0.406923,0.58081 -0.600265,0.37011 -1.777132,0.53913 -1.889329,0.27135 z m 32.954285,13.31049 c 1.08621,-0.31914 1.57095,-0.58674 1.37986,-0.76175 -0.0543,-0.0497 -1.5086,-0.12325 -3.23182,-0.16343 -1.77365,-0.0413 -3.32954,-0.13209 -3.5858,-0.20913 -0.24897,-0.0748 -1.09449,-0.13927 -1.87893,-0.14317 -0.78443,-0.004 -1.7178,-0.0605 -2.07415,-0.12581 -0.35635,-0.0653 -1.20187,-0.19585 -1.87893,-0.2901 -2.40327,-0.33453 -3.56963,-0.5591 -4.04425,-0.7787 -0.50816,-0.23512 -1.8416,-0.31075 -1.97568,-0.11206 -0.041,0.0607 0.19197,0.34108 0.51763,0.62306 0.66541,0.57614 1.76402,1.00829 2.97547,1.17044 1.03262,0.13821 1.98237,0.37629 3.23953,0.81208 l 1.03665,0.35935 4.21138,-0.0291 c 4.18485,-0.029 4.21831,-0.0312 5.30904,-0.35164 z m 12.70275,-0.90578 c 0,-0.61793 -0.36912,-2.25079 -0.78408,-3.46844 -0.28145,-0.82592 -0.51173,-1.68354 -0.51173,-1.90583 0,-0.22229 -0.0882,-0.50784 -0.1961,-0.63454 -0.17816,-0.2093 -0.19169,-0.12726 -0.14798,0.89707 0.0607,1.4217 0.56593,3.45944 1.19913,4.83613 0.16419,0.35697 0.44076,0.52992 0.44076,0.27561 z m -8.38104,-0.62195 c 0.24024,-0.22002 0.34756,-0.39523 0.25871,-0.42236 -0.18659,-0.057 -1.20752,0.51896 -1.20752,0.68118 0,0.25101 0.55848,0.0987 0.94881,-0.25882 z m -40.662334,-2.93803 c -0.09396,-0.27113 -0.327052,-0.33671 -0.327052,-0.092 0,0.16892 0.274721,0.46442 0.359541,0.38674 0.02907,-0.0266 0.01446,-0.15926 -0.03249,-0.29472 z m 0.96876,-0.43832 c 0,-0.0979 -0.05831,-0.14502 -0.129582,-0.10468 -0.07127,0.0403 -0.129581,0.15346 -0.129581,0.25137 0,0.0979 0.05831,0.14501 0.129581,0.10467 0.07127,-0.0403 0.129582,-0.15346 0.129582,-0.25136 z m 45.742154,-3.42065 c 0,-0.35515 0.0639,-0.68189 0.14197,-0.72609 0.0867,-0.0491 0.11023,-0.24823 0.0605,-0.51138 -0.0448,-0.23707 -0.12474,-0.73151 -0.17761,-1.09876 -0.16547,-1.14939 -0.74821,-1.49895 -0.61798,-0.3707 0.0433,0.37532 0.10989,1.21645 0.14793,1.86918 0.076,1.30435 0.11364,1.48347 0.31155,1.48347 0.0754,0 0.13365,-0.28126 0.13365,-0.64572 z m -0.90707,-5.45919 c 0,-0.18901 -0.23511,-0.36529 -0.34858,-0.26136 -0.1066,0.0976 0.0598,0.43238 0.21493,0.43238 0.0735,0 0.13365,-0.077 0.13365,-0.17102 z"
       id="path28742" />
  </g>
</svg>
