<?xml version="1.0" encoding="utf-8"?>
<svg width="350.6000061035156" height="45.60695678489814" viewBox="0 0 400.6731781633044 52.120604686944354" class="css-1j8o68f" version="1.1" id="svg14" xmlns="http://www.w3.org/2000/svg">
  <g id="SvgjsG1705" featurekey="nameLeftFeature-0" transform="matrix(2.098785276005539,0,0,2.098785276005539,-2.133877084472687,-1.2688158006986061)" fill="#48466d">
    <path d="M5.8303 6.441000000000001 c4.4068 0 6.9661 3.5424 6.9661 6.7288 c0 3.6102 -2.5763 6.8303 -6.9661 6.8303 l-4.4746 0 c-0.18644 0 -0.33898 -0.15238 -0.33898 -0.33881 l0 -12.898 c0 -0.16949 0.13559 -0.32203 0.32203 -0.32203 l4.4915 0 z M5.8303 17.6612 c2.7966 0 4.4746 -2.1866 4.4576 -4.5086 c0 -2.288 -1.5932 -4.3727 -4.4576 -4.3727 l-2.4068 0 l0.016949 8.8814 l2.3898 0 z M21.677813559322033 20.11864 c3.7966 0 6.8983 -3.0507 6.8983 -6.9151 c0 -3.8305 -3.1017 -6.8814 -6.8983 -6.8814 c-3.8305 0 -6.9322 3.0508 -6.9322 6.8814 c0 3.8644 3.1017 6.9151 6.9322 6.9151 z M21.677813559322033 17.7798 c-2.4407 0 -4.5085 -2.1017 -4.5085 -4.5763 c0 -2.4576 2.0678 -4.5422 4.5085 -4.5422 s4.4915 2.0846 4.4915 4.5422 c0 2.4746 -2.0508 4.5763 -4.4915 4.5763 z M42.30522033898305 6.441000000000001 c0.16949 0 0.33915 0.15254 0.33915 0.32203 l0 12.915 c0 0.16949 -0.13559 0.32186 -0.32203 0.32186 l-0.55932 0 c-0.45763 0 -0.94915 -0.32203 -1.5593 -1 l-6.9322 -7.7456 l0 8.4068 c0 0.16949 -0.15254 0.32203 -0.33915 0.32203 l-1.7288 0.016784 c-0.18644 0 -0.33898 -0.15238 -0.33898 -0.33881 l0 -12.898 c0 -0.16949 0.15254 -0.32203 0.32203 -0.32203 l1 0 c0.18644 0 0.30508 0.067797 0.45763 0.25424 l7.5763 8.678 l0 -8.6102 c0 -0.16949 0.13559 -0.32203 0.32203 -0.32203 l1.7627 0 z M55.91525423728814 19.20339 c0.30508 0.35593 0.13543 0.79644 -0.3222 0.79644 l-1.8305 0 c-0.16949 0 -0.27119 -0.033732 -0.38983 -0.16933 l-5.9492 -6.6271 l0 6.4746 c0 0.16949 -0.15254 0.32186 -0.32203 0.32186 l-1.7627 0 c-0.18644 0 -0.33898 -0.15238 -0.33898 -0.32186 l0 -11.763 c-0.016949 -0.45763 -0.067797 -0.74576 -0.13559 -1.0508 c-0.050847 -0.22034 0.033898 -0.42373 0.22034 -0.42373 l1.5085 0 c0.49153 0 0.83051 0.32203 0.83051 0.77966 l0 5.3559 l5.0847 -5.9492 c0.10169 -0.13559 0.22034 -0.18644 0.40695 -0.18644 l1.8303 0 c0.42373 0 0.5761 0.44068 0.33881 0.72881 l-4.8983 5.7288 z M66.54236610169492 8.78 l-6.1697 -0.00033103 l0 3.4068 l3.322 0 c0.18644 0 0.33898 0.15254 0.33898 0.33915 l0 1.6778 c0 0.20339 -0.13559 0.3222 -0.33898 0.3222 l-3.322 0 l0 3.1356 l6.1695 0 c0.18644 0 0.33881 0.15238 0.33881 0.33881 l0 1.6613 c0 0.18644 -0.15238 0.33881 -0.33881 0.33881 l-8.2542 0 c-0.18644 0 -0.33898 -0.15238 -0.33898 -0.33881 l0 -12.898 c0 -0.16949 0.13559 -0.32203 0.3222 -0.32203 l8.2712 0 c0.18644 0 0.33881 0.15254 0.33881 0.32203 l0 1.6949 c0 0.18644 -0.15238 0.32203 -0.33881 0.32203 z M80.50810169491527 6.441000000000001 c0.18661 0 0.30525 0.20339 0.18661 0.38983 l-5.0169 7.7119 l0 5.1188 c0 0.20339 -0.11864 0.33881 -0.30525 0.33881 l-1.2712 0 c-0.52542 0 -0.83051 -0.37288 -0.83051 -0.86441 l0 -4.5932 l-5 -7.7119 c-0.11864 -0.18644 0 -0.38983 0.18644 -0.38983 l2.1695 0 c0.18644 0 0.27119 0.15254 0.37288 0.32203 l3.4746 5.3559 l3.4576 -5.3559 c0.11864 -0.16949 0.20339 -0.32203 0.37288 -0.32203 l2.2034 0 z" id="path3" style="fill: rgb(255, 255, 255);"/>
  </g>
  <g id="SvgjsG1706" featurekey="inlineSymbolFeature-0" transform="matrix(0.5264561082375341,0,0,0.5264561082375341,183.75014534860685,-0.2626078436512309)" fill="#48466d">
    <g id="g8">
      <path d="M92.526,65.68c-1.924-3.074-7.117-17.688-7.309-20.188c-0.191-2.498,0.577-6.538-2.884-10.384   c-1.214-1.35-2.217-3.053-3.273-4.803c0.556,0.05,1.029,0.087,1.341,0.116c-0.479-0.468-1.252-0.955-2.137-1.416   c-0.1-0.158-0.203-0.318-0.304-0.478c0.569,0.023,1.086,0.074,1.479,0.211c-0.731-0.797-1.58-1.703-2.552-2.595   c0.648-0.545,1.024-1.322,1.158-1.999c-0.375,0.483-1.389,0.647-2.745,0.669c-0.256-0.189-0.533-0.363-0.807-0.544   c-0.146-0.131-0.297-0.261-0.451-0.389c0.99-0.265,1.803-0.738,2.177-1.488c-1.385,0.495-3.242,0.11-5.037-0.491   c-2.828-5.607-6.45-13.093-8.462-14.674c-2.691-2.115-7.307-4.422-9.229-5.768c-1.923-1.347-3.951-1.54-2.169,1.154   c1.396,2.104,5.454,8.792,7.804,15.103c-1.471-0.235-2.897-0.247-4.289,0.085c-0.436,0.104-0.993,0.329-1.648,0.648   c-1.066-0.905-2.27-1.845-3.543-2.762c-3.723-2.678-13.46-6.152-15.768-7.691c-2.307-1.537-7.112-6.152-6.345-2.885   c0.769,3.27,2.308,7.115,6.345,12.429c0.624,0.822,1.422,1.677,2.319,2.537c1.719,1.482,3.596,2.852,5.542,4.055   c2.076,1.259,4.274,2.376,6.588,2.904l0.015,0.004c0.365,0.083,0.594,0.446,0.511,0.813c-0.08,0.353-0.423,0.576-0.773,0.519   c-2.409-0.395-4.625-1.324-6.735-2.396c-1.228,0.843-2.475,1.703-3.721,2.558c-1.974,0.126-4.759-0.065-6.35-0.758   c0.142,0.854,1.866,2.446,2.75,3.214c-0.108,0.073-0.219,0.148-0.327,0.222c-0.926-0.184-2.497-0.336-4.153,0.217   c1.02,0.055,1.269,0.921,0.974,1.892c-0.037,0.024-0.075,0.048-0.112,0.071c-1.776,0.126-4.023,0.294-4.996-0.087   c1.828,0.912,2.366,1.752,2.366,1.752s-2.366-0.167-3.424-0.455c0.101,0.354,0.096,0.864,0.067,1.271   c-2.225-0.18-4.658-0.562-6.123-0.404c0.981,0.279,1.298,1.456,1.732,2.427c-2.506,0.268-5.448,0.393-7.748-0.312   c0.428,0.385,2.169,2.019,3.888,3.049c-0.971-0.698-6.621-0.164-7.775,0.317c0.743,0.336,0.784,1.019,2.008,1.555   c-0.455,0.067-0.895,0.103-1.324,0.103c-1.619,0-5.73,17.377,0.182,33.527c2.955,8.073,10.501,17.602,15.765,21.053   c3.914,2.57,7.207,3.431,8.46,0.323c1.252-3.107,4.955-12.612,5.396-14.524c1.894-1.894,12.539-12.385,16.14-15.815   c-0.727-0.936-1.386-1.932-1.918-3.017c-0.483-0.955-0.826-2.037-1.071-3.02c-0.259-1.006-0.478-2.015-0.658-3.03   c-0.36-2.036-0.598-4.061-0.689-6.139c-0.016-0.356,0.259-0.656,0.614-0.671c0.346-0.016,0.639,0.245,0.668,0.586l0.003,0.021   c0.168,1.965,0.486,3.962,0.914,5.899c0.464,1.926,0.927,3.912,1.818,5.534c0.479,0.886,1.07,1.717,1.724,2.504h-0.005   c0.88,1.559,2.428,3.747,2.595,4.449c-0.03-0.57,0.016-1.247-0.042-1.906c0.301,0.263,0.607,0.52,0.921,0.77   c0.233,0.768,0.364,1.537,0.447,2.117c0.165-0.248,0.463-0.737,0.677-1.249c0.034,0.023,0.067,0.044,0.101,0.065   c0.284,1.271,0.325,2.581,0.146,3.167c0.462-0.433,0.984-1.269,1.337-2.115c0.529,0.911,1.287,1.977,1.317,2.44   c0.061-0.164,0.411-0.53,0.663-0.953c2.854,1.709,5.779,3.027,7.756,2.863c2.307,2.5,6.728,7.884,10.574,8.172   c1.042,0.079,2.11-0.183,3.148-0.648c-0.592-0.014-1.202-0.065-1.818-0.178c-2.398-0.431-3.717-1.21-4.865-2.875   c-1.087-1.574-1.514-3.024-1.532-3.084c-0.101-0.345,0.097-0.704,0.438-0.805c0.341-0.103,0.701,0.097,0.803,0.441   c0.005,0.011,0.395,1.314,1.354,2.709c0.95,1.376,1.968,1.964,4.029,2.337c1.557,0.278,3.118,0.193,4.222-0.186   c1.681-1.344,3.082-3.027,3.836-4.345C94.063,74.332,94.448,68.758,92.526,65.68z M70.75,46.958   c-0.577-0.361-2.523,0.577-4.326-0.216c-1.802-0.795-3.317-2.813-4.471-2.885c-1.153-0.072,0-0.288,0-0.288   c2.452-0.722,5.192-1.515,6.923-0.722s2.667,2.956,3.316,4.11C72.842,48.111,71.327,47.318,70.75,46.958z M86.901,76.952   c-0.433,0.433-2.452,1.01-3.389,0c-0.5-0.539-0.144-3.966,0.648-4.759c0.794-0.793,1.804,0.146,1.37,0.65   c-0.432,0.504,0.865,1.946,1.37,2.883C86.901,75.727,87.334,76.521,86.901,76.952z" id="path6" style="fill: rgb(255, 255, 255);"/>
    </g>
  </g>
  <g id="SvgjsG1707" featurekey="nameRightFeature-0" transform="matrix(2.111674409860315,0,0,2.111674409860315,241.9039633228556,-1.422416660439616)" fill="#48466d">
    <path d="M15.576525423728814 6.441000000000001 c0.15254 0 0.22051 0.067797 0.22051 0.22034 l0 0.84746 c0 0.13559 -0.067797 0.22034 -0.22034 0.22034 l-4.3729 0 l0 12.034 c0 0.15254 -0.067797 0.23712 -0.20339 0.23712 l-0.67797 0 c-0.30508 0 -0.45763 -0.18644 -0.45763 -0.47441 l0 -11.797 l-4.3729 0 c-0.15254 0 -0.23729 -0.084746 -0.23729 -0.22034 l0 -0.83051 c0 -0.16949 0.084746 -0.23729 0.23729 -0.23729 l10.085 0 z M27.406322033898306 19.76288 c0.084746 0.13559 0.033732 0.23712 -0.11881 0.23712 l-0.88136 0 c-0.27119 0 -0.45763 -0.22017 -0.55932 -0.37271 l-3 -4.2542 l-0.050847 0 l-3.8814 0 l0 4.3898 c0 0.15254 -0.067797 0.23712 -0.23729 0.23712 l-0.88136 0 c-0.15254 0 -0.22034 -0.08458 -0.22034 -0.23712 l0 -13.102 c0 -0.15254 0.067797 -0.22034 0.22034 -0.22034 l5 0 c3.1695 0 4.6273 2.4576 4.6273 4.4746 c0 1.7288 -1.0508 3.7288 -3.2712 4.3051 z M18.915122033898303 7.728999999999999 l0.00016552 6.3727 l3.7797 0 c2.3051 0 3.4066 -1.6102 3.4066 -3.2203 c0 -1.5932 -1.1186 -3.1524 -3.4068 -3.1524 l-3.7797 0 z M42.32223728813559 19.77983 c0.067797 0.13559 0.034229 0.22017 -0.11831 0.22017 l-1.0339 0 c-0.11864 0 -0.18644 -0.050847 -0.23729 -0.15254 l-1.1864 -2.5254 l-8.1864 0 l-1.1864 2.5254 c-0.050847 0.10169 -0.11848 0.15254 -0.22034 0.15254 l-1.0678 0 c-0.11864 0 -0.18644 -0.08458 -0.11864 -0.22017 l6.3558 -13.271 c0.067797 -0.11864 0.11864 -0.15254 0.20322 -0.15254 l0.23745 0 c0.084746 0 0.15254 0.033898 0.20339 0.15254 z M32.135737288135594 16.1019 l7.0339 0 l-3.5254 -7.4576 z M53.441 6.441000000000001 c0.11864 0 0.23763 0.11881 0.15287 0.30525 l-6.2544 13.153 c-0.050847 0.10153 -0.13559 0.16933 -0.25424 0.16933 l-0.13559 0 c-0.10169 0 -0.18644 -0.067797 -0.23729 -0.16933 l-6.2542 -13.169 c-0.084746 -0.16966 0.033898 -0.28831 0.15254 -0.28831 l1.1356 0 c0.13559 0 0.18644 0.10169 0.25424 0.27119 l5.0168 10.864 l5.0339 -10.864 c0.067797 -0.16949 0.11864 -0.27119 0.25424 -0.27119 l1.1356 0 z M64.49132372881357 7.728999999999999 l-7.3556 0.00049656 l0 4.9659 l4.5424 0 c0.15254 0 0.23729 0.067797 0.23729 0.23729 l0 0.81339 c0 0.15254 -0.084746 0.22034 -0.23729 0.22034 l-4.5424 0 l0 4.7458 l7.3559 0 c0.15254 0 0.23712 0.084746 0.23712 0.23712 l0 0.81356 c0 0.16949 -0.067797 0.23712 -0.23729 0.23712 l-8.4746 0 c-0.15254 0 -0.22034 -0.08458 -0.22034 -0.22017 l0 -13.119 c0 -0.15254 0.084746 -0.22034 0.22034 -0.22034 l8.4746 0 c0.15254 0 0.23712 0.084746 0.23712 0.22034 l0 0.84746 c0 0.13559 -0.067797 0.22034 -0.23729 0.22034 z M74.98301355932203 18.712 c0.13559 0 0.20339 0.084912 0.20339 0.23729 l0 0.83051 c0 0.15254 -0.067797 0.22017 -0.20339 0.22017 l-7.9492 0 c-0.15254 0 -0.20339 -0.10153 -0.20339 -0.22017 l0 -13.119 c0 -0.15254 0.067797 -0.22034 0.22034 -0.22034 l0.89831 0 c0.13559 0 0.22034 0.067797 0.22034 0.22034 l0 12.051 l6.8136 0 z" id="path11" style="fill: rgb(255, 255, 255);"/>
  </g>
</svg>